<svg xmlns="http://www.w3.org/2000/svg" width="256" height="256" viewBox="0 0 100 100"><rect width="100" height="100" rx="50" fill="#2ecccc"></rect><path d="M72.85 61.14L72.85 61.14Q72.85 69.43 66.69 74.08Q60.53 78.73 48.54 78.73L48.54 78.73Q43.84 78.73 39.98 78.06Q36.11 77.38 33.31 76.04Q30.51 74.70 28.94 72.68Q27.38 70.66 27.38 67.98L27.38 67.98Q27.38 65.51 28.38 63.78Q29.39 62.04 30.96 60.92L30.96 60.92Q34.21 62.82 38.35 64.28Q42.50 65.74 47.98 65.74L47.98 65.74Q55.94 65.74 55.94 61.26L55.94 61.26Q55.94 59.35 54.54 58.34Q53.14 57.34 49.78 56.55L49.78 56.55L45.30 55.54Q36.11 53.64 31.63 49.66Q27.15 45.69 27.15 38.52L27.15 38.52Q27.15 30.57 33.59 25.92Q40.03 21.27 50.90 21.27L50.90 21.27Q54.93 21.27 58.51 21.89Q62.10 22.50 64.67 23.74Q67.25 24.97 68.76 26.82Q70.27 28.66 70.27 31.13L70.27 31.13Q70.27 33.37 69.38 35.10Q68.48 36.84 67.02 37.96L67.02 37.96Q66.13 37.40 64.39 36.73Q62.66 36.06 60.64 35.50Q58.62 34.94 56.38 34.60Q54.14 34.26 52.24 34.26L52.24 34.26Q48.32 34.26 46.14 35.33Q43.95 36.39 43.95 38.52L43.95 38.52Q43.95 40.09 45.18 40.98Q46.42 41.88 49.66 42.66L49.66 42.66L53.92 43.67Q64.11 45.91 68.48 50.17Q72.85 54.42 72.85 61.14Z" fill="#fff"></path></svg>